<svg xmlns="http://www.w3.org/2000/svg" xmlns:xlink="http://www.w3.org/1999/xlink" width="1920" zoomAndPan="magnify" viewBox="0 0 1440 809.999993" height="1080" preserveAspectRatio="xMidYMid meet" version="1.0"><defs><clipPath id="e2c7ca6523"><path d="M 511.875 269.199219 L 928.125 269.199219 L 928.125 410 L 511.875 410 Z M 511.875 269.199219 " clip-rule="nonzero"/></clipPath><clipPath id="69c219531a"><path d="M 882 461 L 918 461 L 918 540.699219 L 882 540.699219 Z M 882 461 " clip-rule="nonzero"/></clipPath></defs><path fill="#ffffff" d="M 893.878906 462.207031 C 893.878906 465.808594 896.132812 468.511719 898.832031 468.511719 L 901.988281 468.511719 C 904.691406 468.511719 906.941406 465.808594 906.941406 462.207031 L 906.941406 354.542969 L 893.878906 359.949219 Z M 893.878906 462.207031 " fill-opacity="1" fill-rule="nonzero"/><path fill="#ffffff" d="M 595.664062 379.769531 C 595.664062 396.4375 595.664062 429.773438 595.664062 430.671875 C 595.664062 468.0625 651.074219 484.28125 719.546875 484.28125 C 788.015625 484.28125 843.425781 467.613281 843.425781 430.671875 C 843.425781 429.320312 843.425781 423.464844 843.425781 421.214844 L 843.425781 379.320312 L 719.546875 422.113281 Z M 595.664062 379.769531 " fill-opacity="1" fill-rule="nonzero"/><g clip-path="url(#e2c7ca6523)"><path fill="#ffffff" d="M 928.113281 332.921875 L 719.546875 409.5 L 511.875 333.820312 L 716.84375 269.402344 L 868.203125 314.902344 L 719.546875 314.902344 L 719.546875 325.710938 L 904.238281 325.710938 Z M 928.113281 332.921875 " fill-opacity="1" fill-rule="nonzero"/></g><path fill="#ffffff" d="M 912.796875 461.757812 C 912.796875 462.585938 912.71875 463.40625 912.554688 464.214844 C 912.394531 465.027344 912.15625 465.816406 911.839844 466.582031 C 911.519531 467.347656 911.132812 468.074219 910.671875 468.761719 C 910.210938 469.453125 909.691406 470.089844 909.105469 470.675781 C 908.519531 471.261719 907.882812 471.785156 907.191406 472.242188 C 906.503906 472.703125 905.777344 473.09375 905.011719 473.410156 C 904.246094 473.726562 903.457031 473.964844 902.644531 474.125 C 901.832031 474.289062 901.011719 474.371094 900.183594 474.371094 C 899.355469 474.371094 898.535156 474.289062 897.722656 474.125 C 896.910156 473.964844 896.125 473.726562 895.359375 473.410156 C 894.59375 473.09375 893.867188 472.703125 893.175781 472.242188 C 892.488281 471.785156 891.851562 471.261719 891.265625 470.675781 C 890.679688 470.089844 890.15625 469.453125 889.699219 468.761719 C 889.238281 468.074219 888.847656 467.347656 888.53125 466.582031 C 888.214844 465.816406 887.976562 465.027344 887.8125 464.214844 C 887.652344 463.40625 887.570312 462.585938 887.570312 461.757812 C 887.570312 460.929688 887.652344 460.109375 887.8125 459.296875 C 887.976562 458.484375 888.214844 457.695312 888.53125 456.929688 C 888.847656 456.164062 889.238281 455.4375 889.699219 454.75 C 890.15625 454.058594 890.679688 453.421875 891.265625 452.835938 C 891.851562 452.25 892.488281 451.730469 893.175781 451.269531 C 893.867188 450.808594 894.59375 450.417969 895.359375 450.101562 C 896.125 449.785156 896.910156 449.546875 897.722656 449.386719 C 898.535156 449.222656 899.355469 449.144531 900.183594 449.144531 C 901.011719 449.144531 901.832031 449.222656 902.644531 449.386719 C 903.457031 449.546875 904.246094 449.785156 905.011719 450.101562 C 905.777344 450.417969 906.503906 450.808594 907.191406 451.269531 C 907.882812 451.730469 908.519531 452.25 909.105469 452.835938 C 909.691406 453.421875 910.210938 454.058594 910.671875 454.75 C 911.132812 455.4375 911.519531 456.164062 911.839844 456.929688 C 912.15625 457.695312 912.394531 458.484375 912.554688 459.296875 C 912.71875 460.109375 912.796875 460.929688 912.796875 461.757812 Z M 912.796875 461.757812 " fill-opacity="1" fill-rule="nonzero"/><g clip-path="url(#69c219531a)"><path fill="#ffffff" d="M 910.09375 540.589844 L 890.273438 540.589844 C 886.21875 540.589844 882.617188 537.886719 882.617188 534.734375 L 900.183594 461.304688 L 917.753906 534.734375 C 917.753906 538.335938 914.601562 540.589844 910.09375 540.589844 Z M 910.09375 540.589844 " fill-opacity="1" fill-rule="nonzero"/></g></svg>